<svg xmlns="http://www.w3.org/2000/svg" viewBox="0 0 286.99 110.69"><title>namelogo</title><path d="M129.72,123.28c-3.82,2.59-9.22,3.16-13.76,3.16H101.71V73.16h11.52c5.47,0,11.09.22,15.41,4.1a13.86,13.86,0,0,1,4.53,9.94,10.87,10.87,0,0,1-6,10.15c6.19,2.24,9.14,6.63,9.14,13.25A15,15,0,0,1,129.72,123.28Zm-14-40.9h-4.11V93.9h3.75c3.81,0,8-1.08,8-5.76C123.31,83.67,119.49,82.38,115.68,82.38Zm1.08,20.73h-5.19v14.12h5c4.68,0,9.94-1.23,9.94-7C126.48,104.84,121.37,103.11,116.76,103.11Z" transform="translate(-101.71 -72.08)"/><path d="M189.26,126.44V111.25h-13l-7.49,11,3.17,4.24H153.84l3.09-4.39-11.09-16h-.14v20.37h-9.87V73.16h16.64c8.13,0,11.52,1.8,14.54,4.61a16,16,0,0,1,5.19,11.88c0,9.22-6.12,16.27-14.84,17.14l5.33,7.13,28.59-40.76h7.85v53.28ZM152.54,82.38H145.7V98.65h6.62c6.84,0,10-3.24,10-8.35C162.33,87.92,161,82.38,152.54,82.38Zm36.72,10.08h-.14L182,102.83h7.27Z" transform="translate(-101.71 -72.08)"/><path d="M233.54,126.44,211.29,87.71h-.14v38.73h-9.87V73.16h11.24l22,38.74h.14V73.16h9.87v53.28Z" transform="translate(-101.71 -72.08)"/><path d="M276.88,123c-5.11,2.81-11.95,3.45-17.71,3.45H246.86V73.16H259c7.42,0,16.06,1.08,21.89,6.19s8.79,13,8.79,20.6C289.63,109,285,118.52,276.88,123Zm-2.8-36.15c-5-4.39-11.09-4.46-17.36-4.46v34.85h2.09c4.75,0,8.71-.22,13-2.59,5.19-2.89,8-8.86,8-14.69A17.76,17.76,0,0,0,274.08,86.84Z" transform="translate(-101.71 -72.08)"/><path d="M317.49,127.52A27.72,27.72,0,1,1,345.36,100,27.73,27.73,0,0,1,317.49,127.52Zm0-46.22c-10.22,0-18,8.57-18,18.57s7.92,18.44,18,18.44,18-8.5,18-18.44S327.72,81.3,317.49,81.3Z" transform="translate(-101.71 -72.08)"/><path d="M377.68,126.44,355.43,87.71h-.14v38.73h-9.86V73.16h11.23l22,38.74h.15V73.16h9.86v53.28Z" transform="translate(-101.71 -72.08)"/><path d="M189.26,181.69V163.91H176.88l-6.55,8.57c3.09-.87,5.11-2.88,6.91-5.62h11c-3,6.63-11.17,15.91-26.07,15.91A28,28,0,0,1,134,154.91a27.43,27.43,0,0,1,27.57-27.58c8.28,0,15.12,2.23,21,7.7l-5.84,7.85a19.75,19.75,0,0,0-15-6.33c-10.23,0-17.79,8.35-17.79,18.36a19,19,0,0,0,14.55,18.36l32.47-44.86h8.21v53.28Zm0-35.71h-.14l-6.48,9.5h6.62Z" transform="translate(-101.71 -72.08)"/><path d="M233.54,181.69,211.29,143h-.14v38.73h-9.87V128.41h11.24l22,38.74h.14V128.41h9.87v53.28Z" transform="translate(-101.71 -72.08)"/><path d="M256.58,137.63v13h16.49v9.22H256.58v21.81h-9.87V128.41h27.15v9.22Z" transform="translate(-101.71 -72.08)"/><path d="M275.87,181.69V128.41h9.87v53.28Z" transform="translate(-101.71 -72.08)"/><path d="M288,181.69V128.41H316.7v9.22H297.91v13h18v9.22h-18v12.6H316.7v9.21Z" transform="translate(-101.71 -72.08)"/><path d="M379.41,134.6c-5.83-5.11-14.47-6.19-21.89-6.19H345.43v44.07H328.94V128.41h-9.87v53.28h38.67c5.76,0,12.6-.64,17.71-3.45,8.14-4.47,12.75-14,12.75-23C388.2,147.64,385.1,139.64,379.41,134.6Zm-9.07,35.29c-4.25,2.37-8.21,2.59-13,2.59h-2.09V137.63c6.26,0,12.38.07,17.35,4.46a17.73,17.73,0,0,1,5.69,13.11C378.33,161,375.52,167,370.34,169.89Z" transform="translate(-101.71 -72.08)"/></svg>